<?xml version="1.0" encoding="UTF-8"?>
<svg id="Layer_2" data-name="Layer 2" xmlns="http://www.w3.org/2000/svg" viewBox="0 0 67.03 61.91">
  <defs>
    <style>
      .cls-1 {
        fill: #5abcff;
      }

      .cls-2 {
        fill: #fff;
      }

      .cls-3 {
        fill: #f4a256;
      }

      .cls-4 {
        fill: #024abc;
      }

      .cls-5 {
        fill: #d2edff;
      }

      .cls-6 {
        fill: #4383ff;
      }
    </style>
  </defs>
  <g id="Layer_1-2" data-name="Layer 1">
    <g>
      <g>
        <path class="cls-6" d="m43.37,6.55c1.91-8.92,18-8.3,23.66-.75-.49.34-7.03,4.36-6.69,10.86-2.99-7.59-12.5-16.41-16.98-10.11Z"/>
        <path class="cls-1" d="m49.87,44.49c-1.69,1-3.58,1.6-5.54,1.76-9.16.75-12.85-5.35-18.77-9.04,17.54,5.54,22.57-5.22,23-6.12,5.27-11.12-4.75-17.11-5.31-23.34-.1-1.08.35-2.13,1.2-2.81,3.97-3.15,10.31,1.72,13.92,7.47,1.19,1.91,2.03,4.01,2.52,6.21,3.4,15.22-6.17,22.99-11.01,25.87Z"/>
        <path class="cls-6" d="m49.29,26.76c0,6.84-5.55,12.39-12.39,12.39-.39,0-.77-.02-1.15-.05h0c-13.49-.16-13.29-7.88-35.75-2.31,8.01-4.31,17.81-10.65,29.05-19.77.1-.08.2-.16.3-.25,0,0,3.56-2.39,7.55-2.39,6.84,0,12.39,5.55,12.39,12.39Z"/>
        <path class="cls-4" d="m29.36,16.75s.74-.5,1.92-1.04c1.55-.79,3.29-1.27,5.13-1.34.17,0,.34-.01.51-.01,3.02,0,5.8,1.09,7.95,2.89,2.71,2.27,4.44,5.68,4.44,9.5,0,1.7-.34,3.32-.96,4.79.12-.22.19-.38.23-.46,5.27-11.12-4.75-17.11-5.31-23.34-.04-.41,0-.81.12-1.2,0,0,0,0,0,0,.33-1.54,1.08-2.79,2.13-3.77h0c-5.65,5.34-11.4,10.14-16.5,14.27.02-.02.04-.03.06-.05.1-.08.2-.16.3-.25Z"/>
        <path class="cls-5" d="m25.58,37.21s0,0,0,0c-5.26-1.8-9.86-3.87-22.66-1.11,4.25-.61,12.68-.49,22.18,7,8.54,6.74,17.19,4.85,22.54,2.44-1.06.38-2.16.62-3.29.71-9.16.75-12.85-5.35-18.77-9.04Z"/>
      </g>
      <g>
        <path class="cls-3" d="m3.67,61.63c.34-1.67,2.31-9.8,9.58-16.82,5.3-5.12,10.87-7.1,16.26-9.02,6.1-2.17,11.85-4.22,16.14-10.69.35.42,1.44,1.91,1.21,4.11-.31,2.94-2.74,5.93-7.22,8.87-2.86,1.88-4.13,3.2-3.87,4.04.17.57,1.02.87,2.52.87h0c.88,0,1.67-.1,1.67-.1,8.18-1.28,19.23-11.33,21.83-19.61-.1,5.16-2.16,30.82-32.42,34.91-.5.07-.99.11-1.49.14-5.05.33-21.28,1.54-24.21,3.29Z"/>
        <path class="cls-2" d="m61.64,24.09c-.12,2.76-.72,8.48-3.48,14.44-3.52,7.61-11.37,17.17-28.82,19.53-.45.06-.93.11-1.48.14-4.93.33-20.48,1.48-24.02,3.19.47-2.11,2.57-9.81,9.49-16.5,5.28-5.1,10.84-7.08,16.21-8.99,6.07-2.16,11.81-4.2,16.11-10.6.41.53,1.28,1.91,1.07,3.89-.3,2.9-2.71,5.86-7.17,8.79-2.95,1.94-4.2,3.27-3.92,4.18.19.63,1.08.95,2.64.95.88,0,1.66-.1,1.69-.11,7.96-1.25,18.63-10.76,21.66-18.92m.27-1.72c-2.03,8.34-13.63,19.09-21.97,20.39,0,0-.78.1-1.66.1-2.11,0-4.79-.6,1.42-4.68,11.58-7.61,5.93-13.3,5.93-13.3-7.96,12.2-20.99,8.74-32.47,19.82-8.23,7.95-9.68,17.2-9.68,17.2,2-1.88,20.47-3.2,24.4-3.46.5-.03,1-.08,1.5-.15,34.01-4.6,32.53-35.94,32.53-35.94h0Z"/>
      </g>
    </g>
  </g>
</svg>